<?xml version="1.0" standalone="no"?> <!DOCTYPE svg PUBLIC "-//W3C//DTD SVG 1.0//EN" "http://www.w3.org/TR/2001/REC-SVG-20010904/DTD/svg10.dtd" > <svg xmlns="http://www.w3.org/2000/svg" width="100%" height="100%">
<defs >
<font id="Gotham-MediumItalic" horiz-adv-x="1033" ><font-face
    font-family="Gotham"
    units-per-em="2048"
    panose-1="2 0 6 4 4 0 0 9 0 4"
    ascent="1669"
    descent="-410"
    alphabetic="0" />
<missing-glyph horiz-adv-x="748" d="M68 0V1365H612V0H68ZM136 68H544V1297H136V68Z" />
<glyph unicode=" " glyph-name="space" horiz-adv-x="614" />
<glyph unicode="!" glyph-name="exclam" horiz-adv-x="620" d="M217 453L383 1362L403 1434H694L674 1362L354 453H217ZM29 0L102 281H377L301 0H29Z" />
<glyph unicode="&quot;" glyph-name="quotedbl" horiz-adv-x="1009" d="M662 821L840 1434H1122L1118 1423L793 821H662ZM205 821L381 1434H664L662 1423L336 821H205Z" />
<glyph unicode="#" glyph-name="numbersign" horiz-adv-x="1406" d="M113 0L227 330H37L94 543H303L426 899H211L268 1112H500L612 1434H831L719 1112H1055L1167 1434H1384L1274 1112H1464L1409 899H1198L1075 543H1290L1235 330H999L885 0H668L782 330H446L332
0H113ZM522 543H856L981 899H645L522 543Z" />
<glyph unicode="%" glyph-name="percent" horiz-adv-x="1765" d="M483 709Q346 709 262 795T178 1018Q178 1186 292 1318T573 1450Q708 1450 793 1363T879 1141Q879 973 765 841T483 709ZM127 0L1509 1434H1733L348 0H127ZM1286 -16Q1149 -16 1065 71T981 293Q981
463 1094 594T1376 725Q1511 725 1596 639T1681 418Q1681 248 1568 116T1286 -16ZM494 860Q584 860 645 945T707 1133Q707 1211 669 1254T561 1298Q471 1298 410 1212T348 1026Q348 948 387 904T494 860ZM1296 135Q1386 135 1448 221T1511 408Q1511 486 1473 530T1366
575Q1276 575 1214 489T1151 301Q1151 225 1189 180T1296 135Z" />
<glyph unicode="&amp;" glyph-name="ampersand" horiz-adv-x="1421" d="M1090 -29L956 156Q735 -20 494 -20Q299 -20 175 81T51 356Q51 506 159 628T487 815Q405 952 406 1071Q406 1231 527 1344T838 1458Q1006 1458 1110 1366T1214 1128Q1214 862 805 733L1006
457Q1098 557 1198 721L1356 614Q1239 432 1122 303L1276 90L1090 -29ZM698 877Q860 930 923 986T987 1114Q987 1173 944 1216T825 1260Q741 1260 685 1204T629 1069Q628 986 698 877ZM520 188Q680 188 842 315L590 666Q440 619 367 541T293 373Q293 289 353 239T520
188Z" />
<glyph unicode="&apos;" glyph-name="quotesingle" horiz-adv-x="550" d="M205 821L381 1434H664L662 1423L336 821H205Z" />
<glyph unicode="(" glyph-name="parenleft" horiz-adv-x="901" d="M514 -291Q143 14 143 434Q143 764 353 1035T954 1464L1044 1280Q725 1137 561 914T397 442Q397 147 666 -135L514 -291Z" />
<glyph unicode=")" glyph-name="parenright" horiz-adv-x="901" d="M-27 -285L-117 -100Q202 43 366 266T530 737Q530 1034 260 1313L414 1470Q785 1165 784 745Q784 415 574 143T-27 -285Z" />
<glyph unicode="*" glyph-name="asterisk" horiz-adv-x="880" d="M565 776L426 811L518 1047L281 954L242 1096L496 1133L297 1292L399 1395L557 1196L596 1444L733 1409L641 1174L879 1266L918 1126L664 1087L864 930L760 825L602 1024L565 776Z" />
<glyph unicode="+" glyph-name="plus" horiz-adv-x="1323" d="M459 217L563 608H170L231 834H625L727 1225H963L858 834H1251L1190 608H797L692 217H459Z" />
<glyph unicode="," glyph-name="comma" horiz-adv-x="600" d="M-92 -297L-111 -193Q92 -164 125 0H18L94 281H367L303 43Q258 -129 164 -207T-92 -297Z" />
<glyph unicode="-" glyph-name="uni00AD" horiz-adv-x="841" d="M109 506L174 750H780L715 506H109Z" />
<glyph unicode="." glyph-name="period" horiz-adv-x="600" d="M18 0L94 281H367L291 0H18Z" />
<glyph unicode="/" glyph-name="slash" horiz-adv-x="1067" d="M-268 -262L1149 1634H1386L-31 -262H-268Z" />
<glyph unicode="0" glyph-name="zero" horiz-adv-x="1482" d="M676 -25Q430 -25 285 134T139 553Q139 717 193 877T343 1167T584 1377T899 1458Q1143 1458 1288 1300T1434 881Q1434 717 1380 556T1231 266T991 56T676 -25ZM694 203Q827 203 941 308T1114 568T1174
881Q1174 1043 1096 1137T879 1231Q746 1231 632 1126T459 866T399 553Q399 391 477 297T694 203Z" />
<glyph unicode="1" glyph-name="one" horiz-adv-x="827" d="M193 0L508 1174L236 1104L231 1321L655 1444H829L442 0H193Z" />
<glyph unicode="2" glyph-name="two" horiz-adv-x="1241" d="M-55 0L0 205L764 754Q879 836 932 905T985 1051Q985 1133 927 1180T768 1227Q592 1227 406 1040L248 1202Q479 1454 778 1454Q987 1454 1116 1349T1245 1075Q1245 946 1172 840T920 606L387 221H1057L997
0H-55Z" />
<glyph unicode="3" glyph-name="three" horiz-adv-x="1239" d="M500 -25Q133 -25 -18 250L172 385Q293 203 512 203Q649 203 741 274T834 451Q834 549 750 600T516 651H438L422 805L909 1214H299L358 1434H1313L1262 1245L750 827Q906 800 998 713T1090 473Q1090
260 919 118T500 -25Z" />
<glyph unicode="4" glyph-name="four" horiz-adv-x="1341" d="M678 0L764 322H68L41 508L1061 1444H1305L1059 528H1264L1208 322H1004L918 0H678ZM362 528H819L973 1100L362 528Z" />
<glyph unicode="5" glyph-name="five" horiz-adv-x="1243" d="M514 -23Q354 -23 213 50T-2 233L178 379Q325 203 535 203Q682 203 779 285T877 481Q877 579 800 640T586 702Q475 702 352 643L221 750L444 1434H1286L1223 1210H610L502 881Q592 914 686 913Q887
913 1012 802T1137 506Q1137 289 963 133T514 -23Z" />
<glyph unicode="6" glyph-name="six" horiz-adv-x="1314" d="M643 -25Q412 -25 281 106Q136 251 135 508Q135 723 210 918T418 1247Q633 1458 920 1458Q1184 1458 1354 1284L1204 1106Q1073 1231 899 1231Q721 1231 594 1102Q453 961 416 762Q471 828 569 874T780
920Q973 920 1098 808T1223 514Q1223 299 1054 137T643 -25ZM645 190Q784 190 875 278T967 485Q967 583 898 648T711 713Q566 713 474 628T381 426Q381 328 446 262Q522 190 645 190Z" />
<glyph unicode="7" glyph-name="seven" horiz-adv-x="1228" d="M61 0L975 1212H266L326 1434H1333L1280 1243L358 0H61Z" />
<glyph unicode="8" glyph-name="eight" horiz-adv-x="1343" d="M610 -20Q381 -20 226 91T70 375Q70 535 176 635T459 772Q373 811 322 887T270 1057Q270 1215 415 1334T801 1454Q1020 1454 1159 1348T1298 1075Q1298 938 1208 842T969 713Q1071 674 1134 593T1198
401Q1198 227 1034 104T610 -20ZM772 829Q899 829 979 892T1059 1047Q1061 1133 988 1189T791 1245Q670 1245 590 1184T508 1030Q506 944 579 887T772 829ZM625 186Q766 186 857 249T950 414Q950 504 865 565T643 627Q500 627 410 561T319 397Q317 305 402 246T625
186Z" />
<glyph unicode="9" glyph-name="nine" horiz-adv-x="1314" d="M498 -25Q234 -25 39 164L190 342Q346 201 510 201Q686 201 817 334Q948 463 991 657Q934 591 838 545T627 498Q432 498 308 610T184 909Q186 1136 354 1297T766 1458Q870 1458 968 1424T1128 1327Q1273
1186 1274 905Q1274 698 1198 509T987 184Q779 -25 498 -25ZM702 707Q843 707 935 795T1028 1004Q1028 1104 963 1169Q889 1243 764 1243Q623 1243 532 1154T440 938Q440 836 510 772T702 707Z" />
<glyph unicode=":" glyph-name="colon" horiz-adv-x="606" d="M238 801L313 1081H586L510 801H238ZM23 0L98 281H371L295 0H23Z" />
<glyph unicode=";" glyph-name="uni037E" horiz-adv-x="606" d="M-90 -297L-109 -193Q98 -164 127 0H23L98 281H371L307 43Q260 -129 166 -207T-90 -297ZM238 801L313 1081H586L510 801H238Z" />
<glyph unicode="&lt;" glyph-name="less" horiz-adv-x="1310" d="M1010 158L152 610L211 831L1311 1284L1243 1036L424 711L1069 383L1010 158Z" />
<glyph unicode="=" glyph-name="equal" horiz-adv-x="1310" d="M264 862L326 1092H1284L1223 862H264ZM127 350L188 580H1147L1085 350H127Z" />
<glyph unicode="&gt;" glyph-name="greater" horiz-adv-x="1310" d="M78 158L145 406L965 731L319 1059L379 1284L1237 831L1178 610L78 158Z" />
<glyph unicode="?" glyph-name="question" horiz-adv-x="1107" d="M373 453L420 784L432 795Q641 811 756 877T872 1055Q872 1135 817 1179T662 1223Q486 1223 336 1083L201 1249Q400 1452 694 1452Q895 1452 1016 1346T1137 1083Q1137 899 998 784T606 631L539
453H373ZM203 0L279 281H551L475 0H203Z" />
<glyph unicode="@" glyph-name="at" horiz-adv-x="2007" d="M975 -322Q594 -322 357 -100T119 475Q119 670 197 852T409 1167T729 1381T1120 1462Q1493 1462 1716 1257T1939 752Q1939 459 1800 298T1475 137Q1371 137 1299 183T1200 309Q1044 135 856 135Q717
135 623 227T528 479Q528 712 685 875T1038 1038T1321 870L1366 1020L1554 969L1395 463Q1362 354 1398 291T1522 227Q1645 227 1751 369T1858 752Q1858 1020 1656 1203T1120 1386Q868 1386 655 1261T322 925T201 475Q201 156 416 -45T975 -246Q1188 -246 1395
-154L1427 -221Q1213 -322 975 -322ZM934 309Q1057 309 1158 416T1260 664Q1260 754 1204 808T1055 862Q934 862 840 757T745 506Q745 414 796 362T934 309Z" />
<glyph unicode="A" glyph-name="A" horiz-adv-x="1562" d="M-102 0L915 1444H1157L1401 0H1143L1087 346H410L170 0H-102ZM563 569H1057L965 1149L563 569Z" />
<glyph unicode="B" glyph-name="B" horiz-adv-x="1468" d="M39 0L424 1434H973Q1200 1434 1321 1339T1442 1090Q1442 947 1352 853T1114 725Q1335 639 1335 432Q1335 237 1174 119T725 0H39ZM508 829H864Q1016 829 1102 886T1188 1049Q1188 1211 950 1210H610L508
829ZM346 223H760Q912 223 998 282T1085 446Q1085 526 1018 571T834 616H451L346 223Z" />
<glyph unicode="C" glyph-name="C" horiz-adv-x="1495" d="M801 -25Q518 -25 336 141T154 586Q154 813 269 1013T585 1336T1020 1458Q1403 1458 1579 1151L1370 1010Q1300 1116 1212 1171T991 1227Q762 1227 589 1038T416 596Q416 420 524 314T805 207Q918 207
1005 248T1186 371L1352 203Q1118 -25 801 -25Z" />
<glyph unicode="D" glyph-name="D" horiz-adv-x="1587" d="M39 0L424 1434H813Q1186 1434 1372 1247Q1530 1091 1530 829Q1530 499 1298 268Q1030 0 553 0H39ZM352 229H584Q914 229 1108 424Q1268 584 1268 819Q1268 983 1167 1083Q1046 1204 795 1204H616L352 229Z" />
<glyph unicode="E" glyph-name="E" horiz-adv-x="1351" d="M39 0L424 1434H1477L1415 1208H614L514 834H1225L1163 610H453L350 225H1163L1102 0H39Z" />
<glyph unicode="F" glyph-name="F" horiz-adv-x="1353" d="M39 0L424 1434H1491L1430 1204H614L510 813H1233L1171 584H449L293 0H39Z" />
<glyph unicode="G" glyph-name="G" horiz-adv-x="1601" d="M809 -25Q539 -25 346 138T152 592Q152 813 265 1011T586 1334T1040 1458Q1423 1458 1608 1204L1419 1044Q1267 1226 1022 1227Q768 1227 592 1039T416 600Q416 416 530 311T825 205Q989 205 1128 279L1217
582H850L909 801H1520L1325 115Q1090 -25 809 -25Z" />
<glyph unicode="H" glyph-name="H" horiz-adv-x="1548" d="M39 0L424 1434H678L518 838H1192L1352 1434H1604L1219 0H967L1128 604H455L293 0H39Z" />
<glyph unicode="I" glyph-name="I" horiz-adv-x="649" d="M53 0L438 1434H692L307 0H53Z" />
<glyph unicode="J" glyph-name="J" horiz-adv-x="1155" d="M389 -20Q242 -20 125 50T-59 246L125 391Q231 213 399 213Q524 213 612 301Q690 377 748 600L971 1434H1231L991 543Q948 383 904 291T788 127Q639 -20 389 -20Z" />
<glyph unicode="K" glyph-name="K" horiz-adv-x="1480" d="M39 0L424 1434H678L483 709L1323 1434H1669L940 821L1307 0H1028L739 672L393 381L293 0H39Z" />
<glyph unicode="L" glyph-name="L" horiz-adv-x="1265" d="M39 0L424 1434H678L354 229H1108L1044 0H39Z" />
<glyph unicode="M" glyph-name="M" horiz-adv-x="1777" d="M39 0L424 1434H680L930 756L1544 1434H1833L1448 0H1192L1468 1028L838 352H829L565 1024L291 0H39Z" />
<glyph unicode="N" glyph-name="N" horiz-adv-x="1609" d="M39 0L424 1434H657L1143 420L1417 1434H1665L1280 0H1069L567 1042L289 0H39Z" />
<glyph unicode="O" glyph-name="O" horiz-adv-x="1712" d="M799 -25Q514 -25 335 154T156 604Q156 821 263 1016T568 1335T1006 1458Q1291 1458 1471 1279T1651 829Q1651 612 1544 417T1238 98T799 -25ZM825 207Q985 207 1117 298T1319 528T1389 815Q1389 995
1279 1111T981 1227Q821 1227 689 1136T488 905T418 618Q418 436 527 322T825 207Z" />
<glyph unicode="P" glyph-name="P" horiz-adv-x="1380" d="M39 0L424 1434H877Q1172 1434 1311 1292Q1417 1186 1417 1010Q1417 756 1223 611T717 465H418L293 0H39ZM477 688H729Q928 688 1041 768T1155 989Q1155 1075 1100 1130Q1026 1204 868 1204H614L477 688Z" />
<glyph unicode="Q" glyph-name="Q" horiz-adv-x="1712" d="M1311 -78L1200 80Q1014 -24 799 -25Q514 -25 335 154T156 604Q156 821 263 1016T568 1335T1006 1458Q1291 1458 1471 1279T1651 829Q1651 659 1582 500T1391 219L1516 61L1311 -78ZM825 207Q954 207
1069 272L866 526L1073 668L1245 422Q1388 598 1389 815Q1389 995 1279 1111T981 1227Q821 1227 689 1136T488 905T418 618Q418 436 527 322T825 207Z" />
<glyph unicode="R" glyph-name="R" horiz-adv-x="1480" d="M39 0L424 1434H944Q1241 1434 1378 1294Q1482 1190 1483 1024Q1483 823 1352 696Q1227 569 993 524L1260 0H971L725 500H426L293 0H39ZM485 723H811Q1044 723 1149 831Q1221 903 1221 1004Q1221 1080
1169 1135Q1095 1205 930 1204H616L485 723Z" />
<glyph unicode="S" glyph-name="S" horiz-adv-x="1304" d="M606 -20Q200 -20 -2 248L188 406Q366 203 621 203Q742 203 819 258T897 401Q897 467 841 513T633 618Q449 692 357 778T264 1004Q264 1203 422 1328T815 1454Q1147 1454 1341 1239L1165 1067Q997 1231
797 1231Q676 1231 603 1175T530 1042Q530 974 588 931T809 823Q987 753 1076 667T1165 438Q1165 233 1002 107T606 -20Z" />
<glyph unicode="T" glyph-name="T" horiz-adv-x="1265" d="M356 0L680 1200H223L287 1434H1450L1386 1200H932L608 0H356Z" />
<glyph unicode="U" glyph-name="U" horiz-adv-x="1560" d="M707 -23Q457 -23 317 104T176 451Q176 566 209 678L410 1434H662L451 643Q431 565 430 485Q430 360 508 285T731 209Q891 209 999 317T1157 618L1376 1434H1628L1399 580Q1325 306 1176 156Q998 -23 707 -23Z" />
<glyph unicode="V" glyph-name="V" horiz-adv-x="1476" d="M469 -10L266 1434H537L666 338L1384 1434H1669L692 -10H469Z" />
<glyph unicode="W" glyph-name="W" horiz-adv-x="2248" d="M391 -10L279 1434H541L600 371L1233 1438H1446L1516 371L2142 1434H2429L1542 -10H1311L1237 1008L618 -10H391Z" />
<glyph unicode="X" glyph-name="X" horiz-adv-x="1429" d="M-88 0L623 743L293 1434H575L805 922L1276 1434H1599L911 713L1251 0H969L727 535L236 0H-88Z" />
<glyph unicode="Y" glyph-name="Y" horiz-adv-x="1341" d="M387 0L539 569L219 1434H498L715 786L1282 1434H1593L784 543L639 0H387Z" />
<glyph unicode="Z" glyph-name="Z" horiz-adv-x="1394" d="M-39 0L10 186L1106 1210H313L375 1434H1516L1464 1247L369 223H1196L1137 0H-39Z" />
<glyph unicode="[" glyph-name="bracketleft" horiz-adv-x="929" d="M-4 -266L453 1434H1083L1030 1239H637L285 -72H678L627 -266H-4Z" />
<glyph unicode="\" glyph-name="backslash" horiz-adv-x="1067" d="M694 -262L260 1634H467L901 -262H694Z" />
<glyph unicode="]" glyph-name="bracketright" horiz-adv-x="929" d="M-131 -266L-78 -72H315L668 1239H274L326 1434H956L500 -266H-131Z" />
<glyph unicode="^" glyph-name="asciicircum" horiz-adv-x="1024" d="M201 1010L625 1436H799L995 1010H823L686 1280L406 1010H201Z" />
<glyph unicode="_" glyph-name="underscore" horiz-adv-x="1228" d="M-236 -328L-182 -135H1055L1004 -328H-236Z" />
<glyph unicode="`" glyph-name="grave" horiz-adv-x="1024" d="M723 1219L537 1454L768 1554L893 1219H723Z" />
<glyph unicode="a" glyph-name="a" horiz-adv-x="1193" d="M356 -23Q215 -23 121 59T27 274Q27 456 160 560T508 664Q676 664 831 610L838 633Q850 682 850 719Q850 879 614 879Q464 879 317 819L276 1024Q456 1098 664 1098Q875 1098 986 1010T1098 762Q1098
692 1075 608L913 0H670L707 141Q553 -23 356 -23ZM453 160Q566 160 660 235T780 414L793 461Q658 502 547 502Q424 502 353 448T281 307Q281 237 327 199T453 160Z" />
<glyph unicode="b" glyph-name="b" horiz-adv-x="1368" d="M674 -23Q426 -23 309 193L258 0H10L410 1495H657L508 938Q674 1104 854 1104Q1038 1104 1157 978T1276 641Q1276 360 1095 169T674 -23ZM645 188Q797 188 907 316T1018 623Q1018 746 949 818T762 891Q610
891 492 762T373 463Q373 344 448 266T645 188Z" />
<glyph unicode="c" glyph-name="c" horiz-adv-x="1148" d="M586 -25Q373 -25 232 107T90 457Q90 721 280 912T729 1104Q1028 1104 1167 858L975 727Q926 805 866 847T709 889Q562 889 450 760T338 459Q338 336 411 262T594 188Q733 188 870 309L1001 147Q813 -25
586 -25Z" />
<glyph unicode="d" glyph-name="d" horiz-adv-x="1368" d="M512 -23Q328 -23 209 103T90 440Q90 721 271 912T692 1104Q940 1104 1057 889L1219 1495H1466L1067 0H819L858 143Q692 -23 512 -23ZM606 188Q756 188 875 318T995 618Q995 737 919 814T721 891Q569
891 459 764T348 457Q348 334 418 261T606 188Z" />
<glyph unicode="e" glyph-name="e" horiz-adv-x="1228" d="M326 451Q328 326 400 252T606 178Q745 178 883 283L1001 125Q819 -25 582 -25Q357 -25 224 103T90 449Q90 611 169 760T397 1006T727 1104Q928 1104 1043 985T1159 684Q1159 578 1112 451H326ZM352 621H913Q923
648 924 694Q924 784 870 842T709 901Q586 901 491 824T352 621Z" />
<glyph unicode="f" glyph-name="f" horiz-adv-x="811" d="M68 0L301 868H164L221 1081H358L379 1169Q469 1505 791 1505Q916 1505 1004 1468L948 1262Q870 1295 797 1294Q660 1294 618 1143L602 1081H901L844 868H549L315 0H68Z" />
<glyph unicode="g" glyph-name="g" horiz-adv-x="1363" d="M504 -332Q170 -332 -51 -166L86 6Q268 -131 489 -131Q657 -131 754 -35Q826 37 866 184L885 250Q709 86 514 86Q344 86 221 191T98 477Q98 739 280 921T696 1104Q835 1104 917 1045T1053 887L1104 1081H1352L1114
188Q1075 43 1034 -38T930 -180Q778 -332 504 -332ZM606 289Q756 289 869 398T983 651Q983 755 912 824T721 893Q574 893 465 784T356 520Q356 409 426 349T606 289Z" />
<glyph unicode="h" glyph-name="h" horiz-adv-x="1265" d="M10 0L410 1495H657L510 942Q672 1104 838 1104Q990 1104 1078 1017T1167 780Q1167 717 1135 590L979 0H731L891 600Q907 655 907 709Q907 791 858 835T719 879Q617 879 536 804T422 608L258 0H10Z" />
<glyph unicode="i" glyph-name="i" horiz-adv-x="585" d="M350 1247L414 1483H682L616 1247H350ZM25 0L315 1081H563L272 0H25Z" />
<glyph unicode="j" glyph-name="j" horiz-adv-x="583" d="M350 1247L414 1483H680L616 1247H350ZM-98 -334Q-182 -334 -256 -315L-203 -119Q-150 -131 -121 -131Q-8 -131 29 16L315 1081H563L268 -14Q183 -334 -98 -334Z" />
<glyph unicode="k" glyph-name="k" horiz-adv-x="1191" d="M10 0L412 1495H659L426 621L979 1081H1307L762 641L1022 0H743L551 481L342 313L258 0H10Z" />
<glyph unicode="l" glyph-name="l" horiz-adv-x="585" d="M25 0L426 1495H674L272 0H25Z" />
<glyph unicode="m" glyph-name="m" horiz-adv-x="1945" d="M10 0L299 1081H547L510 942Q668 1104 827 1104Q942 1104 1018 1045T1122 887Q1280 1104 1528 1104Q1673 1104 1761 1016T1849 780Q1849 725 1815 590L1657 0H1409L1571 600Q1585 661 1585 709Q1585 791
1539 835T1409 879Q1309 879 1231 804T1122 608L958 0H711L872 600Q886 661 887 709Q887 791 841 835T711 879Q611 879 533 805T422 608L258 0H10Z" />
<glyph unicode="n" glyph-name="n" horiz-adv-x="1263" d="M10 0L299 1081H547L510 942Q672 1104 838 1104Q990 1104 1078 1017T1167 780Q1167 717 1135 590L979 0H731L891 600Q907 655 907 709Q907 791 858 835T719 879Q617 879 536 804T422 608L258 0H10Z" />
<glyph unicode="o" glyph-name="o" horiz-adv-x="1323" d="M600 -25Q371 -25 232 113T92 469Q92 719 278 911T723 1104Q952 1104 1091 965T1231 608Q1231 358 1044 167T600 -25ZM614 190Q766 190 875 319T985 602Q985 737 910 813T709 889Q555 889 447 759T338
477Q338 342 413 266T614 190Z" />
<glyph unicode="p" glyph-name="p" horiz-adv-x="1368" d="M-78 -328L299 1081H547L508 938Q674 1104 854 1104Q1038 1104 1157 978T1276 641Q1276 360 1095 169T674 -23Q426 -23 309 193L170 -328H-78ZM645 188Q797 188 907 316T1018 623Q1018 746 949 818T762
891Q610 891 492 762T373 463Q373 344 448 266T645 188Z" />
<glyph unicode="q" glyph-name="q" horiz-adv-x="1368" d="M711 -410L858 145Q696 -23 512 -23T209 103T90 440Q90 721 271 912T692 1104Q942 1104 1057 891L1108 1081H1356L958 -410H711ZM606 188Q756 188 875 318T995 618Q995 739 919 815T721 891Q569 891 459
764T348 457Q348 334 418 261T606 188Z" />
<glyph unicode="r" glyph-name="r" horiz-adv-x="843" d="M10 0L299 1081H547L483 838Q678 1119 936 1102L866 840H852Q682 840 553 729T367 401L258 0H10Z" />
<glyph unicode="s" glyph-name="s" horiz-adv-x="1019" d="M444 -25Q315 -25 186 25T-33 170L115 322Q267 170 463 170Q539 170 588 205T637 299Q637 338 600 368T479 434Q319 500 244 564T168 743Q168 899 283 1000T592 1102Q711 1102 822 1058T1008 950L870
791Q720 910 573 909Q495 909 452 875T408 786Q408 745 446 715T580 645Q725 584 801 518T877 342Q877 178 755 77T444 -25Z" />
<glyph unicode="t" glyph-name="t" horiz-adv-x="837" d="M401 -18Q272 -18 202 39T131 195Q131 258 150 319L295 868H158L215 1081H352L432 1378H680L600 1081H889L831 868H543L403 346Q395 305 395 285Q395 201 504 201Q580 201 662 236L604 20Q518 -18 401 -18Z" />
<glyph unicode="u" glyph-name="u" horiz-adv-x="1265" d="M428 -23Q276 -23 187 64T98 301Q98 364 131 492L289 1081H537L375 481Q361 424 360 373Q360 291 408 247T547 203Q649 203 730 277T844 473L1008 1081H1255L967 0H719L756 139Q594 -23 428 -23Z" />
<glyph unicode="v" glyph-name="v" horiz-adv-x="1189" d="M326 -8L176 1081H432L510 291L1008 1081H1278L549 -8H326Z" />
<glyph unicode="w" glyph-name="w" horiz-adv-x="1746" d="M248 -8L188 1081H440L461 342L899 1085H1110L1151 342L1573 1081H1823L1176 -8H952L909 731L467 -8H248Z" />
<glyph unicode="x" glyph-name="x" horiz-adv-x="1171" d="M-90 0L461 563L211 1081H477L631 735L950 1081H1249L725 539L981 0H715L553 369L211 0H-90Z" />
<glyph unicode="y" glyph-name="y" horiz-adv-x="1198" d="M133 -334Q-4 -334 -111 -260L20 -78Q86 -125 160 -125Q254 -125 344 -4L186 1081H440L530 281L1008 1081H1278L580 -31Q471 -197 369 -265T133 -334Z" />
<glyph unicode="z" glyph-name="z" horiz-adv-x="1134" d="M-49 0L-2 170L793 879H209L262 1081H1174L1128 911L332 203H944L889 0H-49Z" />
<glyph unicode="{" glyph-name="braceleft" horiz-adv-x="997" d="M633 -289Q440 -250 355 -170T270 33Q270 103 313 229Q340 313 340 367Q340 433 305 463T166 494H102L154 682H215Q367 682 429 749T522 1016Q555 1243 686 1349T1094 1464L1106 1296Q911 1280
837 1205T739 961Q712 754 638 671T412 569Q492 555 535 508T578 391Q578 336 545 246Q508 127 508 74Q508 -2 552 -49T713 -137L633 -289Z" />
<glyph unicode="|" glyph-name="bar" horiz-adv-x="677" d="M276 -262V1634H475V-262H276Z" />
<glyph unicode="}" glyph-name="braceright" horiz-adv-x="997" d="M-72 -289L-84 -121Q111 -105 184 -30T283 215Q310 422 384 505T610 606Q446 637 446 784Q446 845 477 930Q514 1045 514 1102Q514 1178 470 1225T309 1313L389 1464Q582 1425 667 1346T752 1143Q752
1075 711 946Q682 866 682 809Q682 743 717 713T858 682H920L868 494H807Q655 494 592 426T500 160Q465 -67 335 -174T-72 -289Z" />
<glyph unicode="~" glyph-name="asciitilde" horiz-adv-x="1013" d="M270 467L133 532Q248 782 416 782Q492 782 569 719Q639 664 676 664Q717 664 746 693T811 784L950 719Q835 469 668 469Q592 469 512 532Q438 587 408 588Q340 588 270 467Z" />
<glyph unicode="&#xa0;" glyph-name="uni00A0" horiz-adv-x="614" />
<glyph unicode="&#xa7;" glyph-name="section" horiz-adv-x="1294" d="M584 -18Q434 -18 309 31T111 164L266 307Q405 172 598 172Q676 172 725 200T774 274Q774 315 724 346T543 416Q346 475 252 537T158 711Q158 817 241 886T473 977Q375 1051 375 1155Q375
1288 498 1372T805 1456Q955 1456 1079 1407T1278 1274L1122 1130Q983 1265 791 1266Q713 1266 664 1237T614 1163Q614 1120 664 1091T846 1022Q1041 965 1136 902T1231 727Q1231 623 1148 552T915 461Q1013 387 1014 283Q1014 150 891 66T584 -18ZM813 563Q889
563 942 600T995 688Q995 733 948 765T791 831Q660 874 575 874Q499 874 446 838T393 750Q393 705 440 673T598 606Q729 563 813 563Z" />
<glyph unicode="&#xa9;" glyph-name="copyright" horiz-adv-x="1699" d="M1202 -25T893 -25T369 192T154 715T371 1239T897 1458T1421 1241T1636 719T1419 195ZM893 49Q1176 49 1367 244T1559 718T1369 1190T897 1384Q614 1384 424 1189T233 715T422 243T893 49ZM903
326Q735 326 623 441T510 725T623 1010T909 1128Q1087 1128 1212 1008L1116 897Q1014 989 907 989Q803 989 735 914T666 727Q666 618 735 542T909 465Q1018 465 1120 561L1219 465Q1085 326 903 326Z" />
<glyph unicode="&#xab;" glyph-name="guillemotleft" horiz-adv-x="1239" d="M825 70L606 520L610 537L1083 999L1229 866L858 504L1024 162L825 70ZM311 70L94 520L98 537L569 999L717 866L346 504L512 162L311 70Z" />
<glyph unicode="&#xae;" glyph-name="registered" horiz-adv-x="1699" d="M1202 -25T893 -25T369 192T154 715T371 1239T897 1458T1421 1241T1636 719T1419 195ZM893 49Q1176 49 1367 244T1559 718T1369 1190T897 1384Q614 1384 424 1189T233 715T422 243T893
49ZM596 350V1126H942Q1079 1126 1160 1060T1241 879Q1241 787 1193 728T1061 643L1272 350H1096L905 618H745V350H596ZM745 748H936Q1008 748 1050 780T1092 870Q1092 929 1051 961T936 993H745V748Z" />
<glyph unicode="&#xb0;" glyph-name="degree" horiz-adv-x="862" d="M487 772Q350 772 265 856T180 1071Q180 1223 290 1336T555 1450Q694 1450 779 1366T864 1151Q864 1001 753 887T487 772ZM496 911Q586 911 647 983T709 1145Q709 1221 665 1267T549 1313Q461
1313 399 1240T336 1079Q336 1003 380 957T496 911Z" />
<glyph unicode="&#xb6;" glyph-name="paragraph" horiz-adv-x="1157" d="M575 0L698 465Q458 473 323 576T188 883Q188 1131 370 1282T893 1434H1212L827 0H575Z" />
<glyph unicode="&#xb7;" glyph-name="uni2219" horiz-adv-x="600" d="M141 487L217 768H492L416 487H141Z" />
<glyph unicode="&#xbb;" glyph-name="guillemotright" horiz-adv-x="1239" d="M664 70L518 201L889 565L723 907L922 997L1141 549L1137 532L664 70ZM152 70L6 201L375 565L211 907L410 997L629 549L625 532L152 70Z" />
<glyph unicode="&#xdf;" glyph-name="germandbls" horiz-adv-x="1286" d="M461 -4L514 193Q719 191 815 261T911 442Q911 612 635 649L680 819Q1016 899 1016 1116Q1016 1200 961 1249T817 1298Q713 1298 638 1223T526 1008L258 0H10L287 1028Q348 1251 465 1368Q610
1509 827 1509Q1022 1509 1137 1405T1253 1139Q1253 987 1159 887T901 735Q1149 649 1149 436Q1149 233 973 111T461 -4Z" />
<glyph unicode="&#xe0;" glyph-name="agrave" horiz-adv-x="1193" d="M356 -23Q215 -23 121 59T27 274Q27 456 160 560T508 664Q676 664 831 610L838 633Q850 682 850 719Q850 879 614 879Q464 879 317 819L276 1024Q456 1098 664 1098Q875 1098 986 1010T1098
762Q1098 692 1075 608L913 0H670L707 141Q553 -23 356 -23ZM453 160Q566 160 660 235T780 414L793 461Q658 502 547 502Q424 502 353 448T281 307Q281 237 327 199T453 160ZM700 1219L514 1454L745 1554L870 1219H700Z" />
<glyph unicode="&#xe1;" glyph-name="aacute" horiz-adv-x="1193" d="M356 -23Q215 -23 121 59T27 274Q27 456 160 560T508 664Q676 664 831 610L838 633Q850 682 850 719Q850 879 614 879Q464 879 317 819L276 1024Q456 1098 664 1098Q875 1098 986 1010T1098
762Q1098 692 1075 608L913 0H670L707 141Q553 -23 356 -23ZM453 160Q566 160 660 235T780 414L793 461Q658 502 547 502Q424 502 353 448T281 307Q281 237 327 199T453 160ZM592 1219L899 1554L1120 1454L807 1219H592Z" />
<glyph unicode="&#xe2;" glyph-name="acircumflex" horiz-adv-x="1193" d="M356 -23Q215 -23 121 59T27 274Q27 456 160 560T508 664Q676 664 831 610L838 633Q850 682 850 719Q850 879 614 879Q464 879 317 819L276 1024Q456 1098 664 1098Q875 1098 986 1010T1098
762Q1098 692 1075 608L913 0H670L707 141Q553 -23 356 -23ZM453 160Q566 160 660 235T780 414L793 461Q658 502 547 502Q424 502 353 448T281 307Q281 237 327 199T453 160ZM408 1219L725 1518H956L1114 1219H928L809 1356L612 1219H408Z" />
<glyph unicode="&#xe3;" glyph-name="atilde" horiz-adv-x="1193" d="M356 -23Q215 -23 121 59T27 274Q27 456 160 560T508 664Q676 664 831 610L838 633Q850 682 850 719Q850 879 614 879Q464 879 317 819L276 1024Q456 1098 664 1098Q875 1098 986 1010T1098
762Q1098 692 1075 608L913 0H670L707 141Q553 -23 356 -23ZM453 160Q566 160 660 235T780 414L793 461Q658 502 547 502Q424 502 353 448T281 307Q281 237 327 199T453 160ZM512 1208L375 1274Q490 1524 657 1524Q729 1524 811 1460Q881 1405 918 1405Q959 1405
988 1434T1053 1526L1192 1460Q1077 1210 907 1210Q831 1210 754 1274Q680 1329 649 1329Q582 1329 512 1208Z" />
<glyph unicode="&#xe4;" glyph-name="adieresis" horiz-adv-x="1193" d="M356 -23Q215 -23 121 59T27 274Q27 456 160 560T508 664Q676 664 831 610L838 633Q850 682 850 719Q850 879 614 879Q464 879 317 819L276 1024Q456 1098 664 1098Q875 1098 986 1010T1098
762Q1098 692 1075 608L913 0H670L707 141Q553 -23 356 -23ZM453 160Q566 160 660 235T780 414L793 461Q658 502 547 502Q424 502 353 448T281 307Q281 237 327 199T453 160ZM840 1219L905 1460H1157L1090 1219H840ZM432 1219L498 1460H750L684 1219H432Z" />
<glyph unicode="&#xe5;" glyph-name="aring" horiz-adv-x="1193" d="M356 -23Q215 -23 121 59T27 274Q27 456 160 560T508 664Q676 664 831 610L838 633Q850 682 850 719Q850 879 614 879Q464 879 317 819L276 1024Q456 1098 664 1098Q875 1098 986 1010T1098
762Q1098 692 1075 608L913 0H670L707 141Q553 -23 356 -23ZM453 160Q566 160 660 235T780 414L793 461Q658 502 547 502Q424 502 353 448T281 307Q281 237 327 199T453 160ZM797 1217Q699 1217 640 1273T580 1415Q580 1519 654 1594T836 1669Q934 1669 993 1613T1053
1470Q1053 1366 978 1292T797 1217ZM799 1315Q858 1315 899 1361T940 1468Q940 1513 912 1542T834 1571Q775 1571 734 1525T692 1417Q692 1372 721 1344T799 1315Z" />
<glyph unicode="&#xe6;" glyph-name="ae" horiz-adv-x="1941" d="M883 188Q654 -23 406 -23Q232 -23 130 61T27 289Q27 465 160 564T508 664Q676 664 831 610L838 633Q850 682 850 719Q850 879 614 879Q464 879 317 819L276 1024Q456 1098 664 1098Q961 1098 1038
913Q1212 1103 1448 1104Q1645 1104 1758 985T1872 684Q1872 567 1825 455H1038Q1038 328 1111 253T1319 178Q1456 178 1597 283L1714 125Q1542 -25 1296 -25Q1002 -25 883 188ZM1065 618H1628Q1636 655 1636 694Q1636 784 1583 842T1421 901Q1300 901 1204 822T1065
618ZM819 453Q680 502 547 502Q424 502 353 448T281 307Q281 237 331 199T471 160Q555 160 656 210T829 336Q819 398 819 453Z" />
<glyph unicode="&#xe7;" glyph-name="ccedilla" horiz-adv-x="1148" d="M418 0Q268 47 179 167T90 457Q90 721 280 912T729 1104Q1028 1104 1167 858L975 727Q926 805 866 847T709 889Q562 889 450 760T338 459Q338 336 411 262T594 188Q733 188 870 309L1001
147Q815 -23 592 -25H590L371 -338L180 -248L418 0Z" />
<glyph unicode="&#xe8;" glyph-name="egrave" horiz-adv-x="1228" d="M326 451Q328 326 400 252T606 178Q745 178 883 283L1001 125Q819 -25 582 -25Q357 -25 224 103T90 449Q90 611 169 760T397 1006T727 1104Q928 1104 1043 985T1159 684Q1159 578 1112 451H326ZM352
621H913Q923 648 924 694Q924 784 870 842T709 901Q586 901 491 824T352 621ZM713 1219L526 1454L758 1554L883 1219H713Z" />
<glyph unicode="&#xe9;" glyph-name="eacute" horiz-adv-x="1228" d="M326 451Q328 326 400 252T606 178Q745 178 883 283L1001 125Q819 -25 582 -25Q357 -25 224 103T90 449Q90 611 169 760T397 1006T727 1104Q928 1104 1043 985T1159 684Q1159 578 1112 451H326ZM352
621H913Q923 648 924 694Q924 784 870 842T709 901Q586 901 491 824T352 621ZM600 1219L907 1554L1128 1454L815 1219H600Z" />
<glyph unicode="&#xea;" glyph-name="ecircumflex" horiz-adv-x="1228" d="M326 451Q328 326 400 252T606 178Q745 178 883 283L1001 125Q819 -25 582 -25Q357 -25 224 103T90 449Q90 611 169 760T397 1006T727 1104Q928 1104 1043 985T1159 684Q1159 578 1112
451H326ZM352 621H913Q923 648 924 694Q924 784 870 842T709 901Q586 901 491 824T352 621ZM414 1219L731 1518H963L1120 1219H934L815 1356L618 1219H414Z" />
<glyph unicode="&#xeb;" glyph-name="edieresis" horiz-adv-x="1228" d="M326 451Q328 326 400 252T606 178Q745 178 883 283L1001 125Q819 -25 582 -25Q357 -25 224 103T90 449Q90 611 169 760T397 1006T727 1104Q928 1104 1043 985T1159 684Q1159 578 1112 451H326ZM352
621H913Q923 648 924 694Q924 784 870 842T709 901Q586 901 491 824T352 621ZM852 1219L918 1460H1169L1102 1219H852ZM444 1219L510 1460H762L696 1219H444Z" />
<glyph unicode="&#xec;" glyph-name="igrave" horiz-adv-x="585" d="M25 0L315 1081H563L272 0H25ZM408 1219L221 1454L453 1554L578 1219H408Z" />
<glyph unicode="&#xed;" glyph-name="iacute" horiz-adv-x="585" d="M25 0L315 1081H563L272 0H25ZM324 1219L631 1554L852 1454L539 1219H324Z" />
<glyph unicode="&#xee;" glyph-name="icircumflex" horiz-adv-x="585" d="M25 0L315 1081H563L272 0H25ZM106 1219L424 1518H655L813 1219H627L508 1356L311 1219H106Z" />
<glyph unicode="&#xef;" glyph-name="idieresis" horiz-adv-x="585" d="M25 0L315 1081H563L272 0H25ZM547 1219L612 1460H864L797 1219H547ZM139 1219L205 1460H457L391 1219H139Z" />
<glyph unicode="&#xf1;" glyph-name="ntilde" horiz-adv-x="1263" d="M10 0L299 1081H547L510 942Q672 1104 838 1104Q990 1104 1078 1017T1167 780Q1167 717 1135 590L979 0H731L891 600Q907 655 907 709Q907 791 858 835T719 879Q617 879 536 804T422 608L258
0H10ZM547 1208L410 1274Q525 1524 692 1524Q764 1524 846 1460Q916 1405 952 1405Q993 1405 1023 1434T1087 1526L1227 1460Q1112 1210 942 1210Q866 1210 788 1274Q714 1329 684 1329Q617 1329 547 1208Z" />
<glyph unicode="&#xf2;" glyph-name="ograve" horiz-adv-x="1323" d="M600 -25Q371 -25 232 113T92 469Q92 719 278 911T723 1104Q952 1104 1091 965T1231 608Q1231 358 1044 167T600 -25ZM614 190Q766 190 875 319T985 602Q985 737 910 813T709 889Q555 889 447
759T338 477Q338 342 413 266T614 190ZM735 1219L549 1454L780 1554L905 1219H735Z" />
<glyph unicode="&#xf3;" glyph-name="oacute" horiz-adv-x="1323" d="M600 -25Q371 -25 232 113T92 469Q92 719 278 911T723 1104Q952 1104 1091 965T1231 608Q1231 358 1044 167T600 -25ZM614 190Q766 190 875 319T985 602Q985 737 910 813T709 889Q555 889 447
759T338 477Q338 342 413 266T614 190ZM610 1219L918 1554L1139 1454L825 1219H610Z" />
<glyph unicode="&#xf4;" glyph-name="ocircumflex" horiz-adv-x="1323" d="M600 -25Q371 -25 232 113T92 469Q92 719 278 911T723 1104Q952 1104 1091 965T1231 608Q1231 358 1044 167T600 -25ZM614 190Q766 190 875 319T985 602Q985 737 910 813T709 889Q555
889 447 759T338 477Q338 342 413 266T614 190ZM440 1219L758 1518H989L1147 1219H961L842 1356L645 1219H440Z" />
<glyph unicode="&#xf5;" glyph-name="otilde" horiz-adv-x="1323" d="M600 -25Q371 -25 232 113T92 469Q92 719 278 911T723 1104Q952 1104 1091 965T1231 608Q1231 358 1044 167T600 -25ZM614 190Q766 190 875 319T985 602Q985 737 910 813T709 889Q555 889 447
759T338 477Q338 342 413 266T614 190ZM539 1208L401 1274Q516 1524 684 1524Q756 1524 838 1460Q908 1405 944 1405Q985 1405 1014 1434T1079 1526L1219 1460Q1104 1210 934 1210Q858 1210 780 1274Q706 1329 676 1329Q609 1329 539 1208Z" />
<glyph unicode="&#xf6;" glyph-name="odieresis" horiz-adv-x="1323" d="M600 -25Q371 -25 232 113T92 469Q92 719 278 911T723 1104Q952 1104 1091 965T1231 608Q1231 358 1044 167T600 -25ZM614 190Q766 190 875 319T985 602Q985 737 910 813T709 889Q555 889
447 759T338 477Q338 342 413 266T614 190ZM868 1219L934 1460H1186L1118 1219H868ZM461 1219L526 1460H778L713 1219H461Z" />
<glyph unicode="&#xf8;" glyph-name="oslash" horiz-adv-x="1323" d="M600 -25Q393 -25 254 94L135 -10H-98L156 213Q93 328 92 469Q92 719 278 911T723 1104Q926 1104 1061 989L1180 1094H1411L1163 874Q1231 761 1231 608Q1231 358 1044 167T600 -25ZM346 371L889
844Q817 897 715 897Q555 897 443 764T330 477Q330 420 346 371ZM608 182Q768 182 880 314T993 602Q993 670 975 719L428 240Q497 182 608 182Z" />
<glyph unicode="&#xf9;" glyph-name="ugrave" horiz-adv-x="1265" d="M428 -23Q276 -23 187 64T98 301Q98 364 131 492L289 1081H537L375 481Q361 424 360 373Q360 291 408 247T547 203Q649 203 730 277T844 473L1008 1081H1255L967 0H719L756 139Q594 -23 428
-23ZM756 1219L569 1454L801 1554L926 1219H756Z" />
<glyph unicode="&#xfa;" glyph-name="uacute" horiz-adv-x="1265" d="M428 -23Q276 -23 187 64T98 301Q98 364 131 492L289 1081H537L375 481Q361 424 360 373Q360 291 408 247T547 203Q649 203 730 277T844 473L1008 1081H1255L967 0H719L756 139Q594 -23 428
-23ZM631 1219L938 1554L1159 1454L846 1219H631Z" />
<glyph unicode="&#xfb;" glyph-name="ucircumflex" horiz-adv-x="1265" d="M428 -23Q276 -23 187 64T98 301Q98 364 131 492L289 1081H537L375 481Q361 424 360 373Q360 291 408 247T547 203Q649 203 730 277T844 473L1008 1081H1255L967 0H719L756 139Q594 -23
428 -23ZM442 1219L760 1518H991L1149 1219H963L844 1356L647 1219H442Z" />
<glyph unicode="&#xfc;" glyph-name="udieresis" horiz-adv-x="1265" d="M428 -23Q276 -23 187 64T98 301Q98 364 131 492L289 1081H537L375 481Q361 424 360 373Q360 291 408 247T547 203Q649 203 730 277T844 473L1008 1081H1255L967 0H719L756 139Q594 -23
428 -23ZM879 1219L944 1460H1196L1128 1219H879ZM471 1219L537 1460H788L723 1219H471Z" />
<glyph unicode="&#xff;" glyph-name="ydieresis" horiz-adv-x="1198" d="M133 -334Q-4 -334 -111 -260L20 -78Q86 -125 160 -125Q254 -125 344 -4L186 1081H440L530 281L1008 1081H1278L580 -31Q471 -197 369 -265T133 -334ZM827 1219L893 1460H1145L1077 1219H827ZM420
1219L485 1460H737L672 1219H420Z" />
<glyph unicode="&#x131;" glyph-name="dotlessi" horiz-adv-x="585" d="M25 0L315 1081H563L272 0H25Z" />
<glyph unicode="&#x153;" glyph-name="oe" horiz-adv-x="2115" d="M1214 455Q1214 328 1287 253T1495 178Q1632 178 1774 283L1890 125Q1718 -25 1473 -25Q1321 -25 1214 36T1057 211Q879 -25 600 -25Q373 -25 233 114T92 469Q92 721 277 912T721 1104Q879 1104
988 1036T1147 852Q1325 1104 1616 1104Q1819 1104 1933 985T2048 684Q2048 567 2001 455H1214ZM1241 618H1802Q1812 649 1812 694Q1812 784 1758 842T1597 901Q1476 901 1380 822T1241 618ZM612 190Q768 190 876 315T985 598Q985 731 910 810T711 889Q555 889
447 762T338 477Q338 348 413 269T612 190Z" />
<glyph unicode="&#x192;" glyph-name="florin" horiz-adv-x="1101" d="M109 -18Q27 -18 -55 -2L0 201Q49 187 96 186Q202 186 272 342L442 729H274L330 936H535L627 1141Q760 1452 1028 1452Q1163 1452 1253 1415L1196 1210Q1126 1243 1042 1243Q915 1243 838
1071L778 936H1049L993 729H686L483 268Q357 -18 109 -18Z" />
<glyph unicode="&#x2013;" glyph-name="endash" horiz-adv-x="1085" d="M109 510L172 745H1024L961 510H109Z" />
<glyph unicode="&#x2014;" glyph-name="emdash" horiz-adv-x="1843" d="M109 510L172 745H1782L1718 510H109Z" />
<glyph unicode="&#x2018;" glyph-name="quoteleft" horiz-adv-x="600" d="M223 866L287 1104Q334 1276 428 1355T684 1444L702 1339Q495 1310 467 1147H571L496 866H223Z" />
<glyph unicode="&#x2019;" glyph-name="quoteright" horiz-adv-x="600" d="M209 854L190 961Q397 990 426 1153H322L397 1434H670L606 1194Q559 1024 465 945T209 854Z" />
<glyph unicode="&#x201c;" glyph-name="quotedblleft" horiz-adv-x="1073" d="M698 864L764 1104Q809 1274 903 1353T1159 1444L1178 1337Q971 1308 942 1147H1049L973 864H698ZM225 864L289 1104Q334 1274 428 1353T684 1444L702 1337Q495 1308 467 1147H573L498
864H225Z" />
<glyph unicode="&#x201d;" glyph-name="quotedblright" horiz-adv-x="1073" d="M678 854L659 961Q866 990 895 1153H791L866 1434H1139L1075 1194Q1028 1024 934 945T678 854ZM205 854L186 961Q391 990 422 1153H315L391 1434H664L600 1194Q555 1024 461 945T205 854Z" />
<glyph unicode="&#x2020;" glyph-name="dagger" horiz-adv-x="841" d="M322 487L489 1051L236 1032L276 1178L516 1159L569 1434H731L633 1159L887 1178L846 1032L602 1051L469 487H322Z" />
<glyph unicode="&#x2021;" glyph-name="daggerdbl" horiz-adv-x="854" d="M190 0L287 274L35 256L74 401L315 383L389 717L494 1051L242 1032L283 1178L524 1159L575 1434H737L639 1159L893 1178L852 1032L610 1051L537 717L430 383L684 401L645 256L403 274L352 0H190Z" />
<glyph unicode="&#x2022;" glyph-name="bullet" horiz-adv-x="1005" d="M496 424Q390 424 327 486T264 657Q264 798 359 910T594 1022Q700 1022 761 959T823 788Q823 647 728 536T496 424Z" />
<glyph unicode="&#x2026;" glyph-name="ellipsis" horiz-adv-x="1669" d="M1096 0L1171 276H1438L1364 0H1096ZM557 0L631 276H899L825 0H557ZM18 0L92 276H360L285 0H18Z" />
<glyph unicode="&#x2122;" glyph-name="trademark" horiz-adv-x="1427" d="M743 803L918 1434H1038L1147 1135L1417 1434H1552L1378 803H1262L1386 1251L1110 948H1098L985 1251L860 803H743ZM293 803L434 1323H242L272 1434H780L752 1323H557L414 803H293Z" />
<glyph unicode="&#xfb01;" glyph-name="uniFB01" horiz-adv-x="1398" d="M1161 1247L1227 1483H1493L1430 1247H1161ZM68 0L301 868H164L221 1081H358L379 1169Q469 1505 791 1505Q916 1505 1004 1468L948 1262Q870 1295 797 1294Q660 1294 618 1143L602 1081H901L844
868H549L315 0H68ZM836 0L1126 1081H1374L1083 0H836Z" />
<glyph unicode="&#xfb02;" glyph-name="uniFB02" horiz-adv-x="1398" d="M68 0L301 868H164L221 1081H358L379 1169Q469 1505 791 1505Q916 1505 1004 1468L948 1262Q870 1295 797 1294Q660 1294 618 1143L602 1081H901L844 868H549L315 0H68ZM836 0L1237 1495H1485L1083
0H836Z" />
</font>
</defs>
</svg>
